<svg width="24" height="24" viewBox="0 0 24 24" fill="none" xmlns="http://www.w3.org/2000/svg">
<path d="M19 5.46488L12.6252 6.80693C12.0156 6.93529 11.3942 6.99999 10.7711 6.99999H7.5C5.567 6.99999 4 8.56699 4 10.5C4 12.433 5.567 14 7.5 14H10.7711C11.3942 14 12.0156 14.0647 12.6252 14.193L19 15.5351V5.46488ZM7.5 4.99999H10.7711C11.2557 4.99999 11.739 4.94966 12.2132 4.84983L19.794 3.25388C20.4155 3.12303 21 3.59726 21 4.23243V16.7675C21 17.4027 20.4155 17.877 19.794 17.7461L12.2132 16.1501C11.739 16.0503 11.2557 16 10.7711 16H7.5C4.46243 16 2 13.5376 2 10.5C2 7.46242 4.46243 4.99999 7.5 4.99999Z" fill="black"/>
<path d="M11 4.99999C11.5523 4.99999 12 5.44771 12 5.99999V19C12 20.1046 11.1046 21 9.99999 21H9.17702C8.35922 21 7.6238 20.5021 7.32007 19.7428L5.57151 15.3714C5.3664 14.8586 5.61582 14.2766 6.1286 14.0715C6.64138 13.8664 7.22335 14.1158 7.42847 14.6286L9.17702 19H9.99999V5.99999C9.99999 5.44771 10.4477 4.99999 11 4.99999Z" fill="black"/>
</svg>
