<svg width="24" height="24" viewBox="0 0 24 24" fill="none" xmlns="http://www.w3.org/2000/svg">
<path d="M15.2519 10.2346L18.9493 10.6967L16.4015 13.023C15.9085 13.4731 15.6726 14.1396 15.7726 14.7996L16.3598 18.6751L13.0815 16.5676C12.4227 16.1441 11.5773 16.1441 10.9185 16.5676L7.64024 18.6751L8.22744 14.7996C8.32744 14.1396 8.09154 13.4731 7.59854 13.023L5.05069 10.6967L8.74807 10.2346C9.42139 10.1504 10.0061 9.73057 10.3011 9.11949L12 5.60035L13.6989 9.11949C13.9939 9.73057 14.5786 10.1504 15.2519 10.2346ZM12.9006 2.86542C12.5367 2.11175 11.4633 2.11175 11.0995 2.86542L8.5 8.24999L2.65131 8.98108C1.80456 9.08692 1.4709 10.1365 2.10108 10.7118L6.25 14.5L5.33141 20.5627C5.2025 21.4135 6.13703 22.019 6.86088 21.5537L12 18.25L17.1391 21.5537C17.863 22.019 18.7975 21.4135 18.6686 20.5627L17.75 14.5L21.8989 10.7118C22.5291 10.1365 22.1954 9.08692 21.3487 8.98108L15.5 8.24999L12.9006 2.86542Z" fill="black"/>
</svg>
