<svg width="12" height="12" viewBox="0 0 12 12" fill="none" xmlns="http://www.w3.org/2000/svg">
<path d="M7.68765 5.24808L9.26393 5.34659L8.09153 6.37245C7.82679 6.60409 7.70323 6.95781 7.76616 7.30391L8.10436 9.164L6.54079 8.15885C6.21138 7.94708 5.78868 7.94708 5.45927 8.15885L3.8957 9.164L4.2339 7.30391C4.29683 6.95781 4.17327 6.60409 3.90853 6.37245L2.73613 5.34659L4.31241 5.24808C4.67775 5.22524 5.00141 5.00462 5.15621 4.67291L6.00003 2.86473L6.84385 4.67291C6.99864 5.00462 7.32231 5.22524 7.68765 5.24808ZM6.45312 1.47093C6.27357 1.08619 5.72648 1.08619 5.54694 1.47094L4.25003 4.25002L1.46189 4.42428C1.01631 4.45213 0.827836 5.00561 1.16383 5.2996L3.25003 7.12502L2.70593 10.1175C2.62771 10.5477 3.10044 10.864 3.46824 10.6276L6.00003 9.00002L8.53181 10.6276C8.89962 10.864 9.37235 10.5477 9.29413 10.1175L8.75003 7.12502L10.8362 5.2996C11.1722 5.00561 10.9838 4.45213 10.5382 4.42428L7.75003 4.25002L6.45312 1.47093Z" fill="black"/>
</svg>
