<svg width="28" height="28" viewBox="0 0 28 28" fill="none" xmlns="http://www.w3.org/2000/svg">
<g clip-path="url(#clip0_9_522)">
<path d="M14 28C21.732 28 28 21.732 28 14C28 6.26801 21.732 0 14 0C6.26801 0 0 6.26801 0 14C0 21.732 6.26801 28 14 28ZM19.9981 11.2949C20.0104 11.6039 19.9619 11.9123 19.8554 12.2023C19.7488 12.4923 19.5864 12.7583 19.3773 12.9849C19.1682 13.2114 18.9167 13.3942 18.6372 13.5226C18.3577 13.651 18.0557 13.7225 17.7486 13.733C16.4024 13.733 16.1199 12.842 15.8592 12.0198C15.636 11.3158 15.4288 10.6623 14.5833 10.6623C13.5839 10.6623 13 11.746 13 12.7346C13 14.5401 14.2502 16.4369 16.0818 16.4369C16.9703 16.4369 17.4983 16.1878 17.8917 16.0022C18.1252 15.892 18.3113 15.8042 18.4972 15.8042C19.0799 15.8042 19.4966 16.5271 19.4966 17.1586C19.4966 18.6032 17.4143 20.5 14.249 20.5C13.4046 20.4957 12.5698 20.3201 11.7944 19.9837C11.019 19.6473 10.319 19.157 9.73616 18.5421C9.15334 17.9273 8.6997 17.2005 8.40235 16.4052C8.105 15.6099 7.97005 14.7624 8.00556 13.9135C8.05782 12.1637 8.79748 10.5062 10.0623 9.30436C11.3272 8.10256 13.014 7.45457 14.7529 7.50248C18.169 7.50248 19.9981 9.57487 19.9981 11.2949Z" fill="black"/>
</g>
<defs>
<clipPath id="clip0_9_522">
<rect width="28" height="28" fill="white"/>
</clipPath>
</defs>
</svg>
