<svg width="16" height="16" viewBox="0 0 16 16" fill="none" xmlns="http://www.w3.org/2000/svg">
<path d="M14.8923 7.78458C14.9601 7.92017 14.9601 8.07976 14.8923 8.21535C12.0525 13.895 3.94746 13.895 1.10767 8.21535C1.03988 8.07976 1.03988 7.92017 1.10767 7.78458C3.94746 2.10501 12.0525 2.10501 14.8923 7.78458ZM9.49998 7.99997C9.49998 7.17154 8.8284 6.49997 7.99998 6.49997C7.17155 6.49997 6.49998 7.17154 6.49998 7.99997C6.49998 8.82839 7.17155 9.49997 7.99998 9.49997C8.8284 9.49997 9.49998 8.82839 9.49998 7.99997ZM10.5 7.99997C10.5 6.61926 9.38069 5.49997 7.99998 5.49997C6.61926 5.49997 5.49998 6.61926 5.49998 7.99997C5.49998 9.38068 6.61926 10.5 7.99998 10.5C9.38069 10.5 10.5 9.38068 10.5 7.99997Z" fill="black"/>
</svg>
