<svg width="24" height="24" viewBox="0 0 24 24" fill="none" xmlns="http://www.w3.org/2000/svg">
<path d="M6 7.45897C8.50035 6.87093 10.7066 5.3283 12 4.27751C13.2934 5.3283 15.4996 6.87093 18 7.45897V12.875C18 14.7439 16.9447 16.3416 15.4353 17.6705C14.2018 18.7565 12.8306 19.5101 12 19.9118C11.1694 19.5101 9.79817 18.7565 8.56472 17.6705C7.05529 16.3416 6 14.7439 6 12.875V7.45897ZM11.2502 2.29508C10.0583 3.33297 7.59842 5.20994 4.99576 5.61962C4.45019 5.7055 4 6.1477 4 6.69999V12.875C4 18.245 10.0994 21.2705 11.6466 21.9516C11.8731 22.0513 12.1269 22.0513 12.3534 21.9516C13.9006 21.2705 20 18.245 20 12.875V6.69795C20 6.14566 19.5498 5.7055 19.0042 5.61962C16.4016 5.20994 13.9417 3.33297 12.7498 2.29508C12.326 1.92606 11.674 1.92606 11.2502 2.29508Z" fill="black"/>
<path d="M15.7071 10.2929C16.0976 10.6834 16.0976 11.3166 15.7071 11.7071L12.2071 15.2071C11.8166 15.5976 11.1834 15.5976 10.7929 15.2071L8.79289 13.2071C8.40237 12.8166 8.40237 12.1834 8.79289 11.7929C9.18342 11.4024 9.81658 11.4024 10.2071 11.7929L11.5 13.0858L14.2929 10.2929C14.6834 9.90236 15.3166 9.90236 15.7071 10.2929Z" fill="black"/>
</svg>
