<svg width="16" height="16" viewBox="0 0 16 16" fill="none" xmlns="http://www.w3.org/2000/svg">
<path d="M15 8C15 11.866 11.866 15 8 15C4.13401 15 1 11.866 1 8C1 4.13401 4.13401 1 8 1C11.866 1 15 4.13401 15 8ZM8 5.5C8.69036 5.5 9.25 6.05964 9.25 6.75C9.25 7.44036 8.69036 8 8 8C7.72386 8 7.5 8.22386 7.5 8.5C7.5 8.77614 7.72386 9 8 9C9.24264 9 10.25 7.99264 10.25 6.75C10.25 5.50736 9.24264 4.5 8 4.5C6.75736 4.5 5.75 5.50736 5.75 6.75C5.75 7.02614 5.97386 7.25 6.25 7.25C6.52614 7.25 6.75 7.02614 6.75 6.75C6.75 6.05964 7.30964 5.5 8 5.5ZM8 11.5C8.41421 11.5 8.75 11.1642 8.75 10.75C8.75 10.3358 8.41421 10 8 10C7.58579 10 7.25 10.3358 7.25 10.75C7.25 11.1642 7.58579 11.5 8 11.5Z" fill="black"/>
</svg>
