<svg width="36" height="36" viewBox="0 0 36 36" fill="none" xmlns="http://www.w3.org/2000/svg">
<path d="M18 33C26.2843 33 33 26.2843 33 18C33 9.71573 26.2843 3 18 3C9.71573 3 3 9.71573 3 18C3 26.2843 9.71573 33 18 33ZM25.6339 15.8839L17.6339 23.8839C17.1457 24.372 16.3543 24.372 15.8661 23.8839L10.8661 18.8839C10.378 18.3957 10.378 17.6043 10.8661 17.1161C11.3543 16.628 12.1457 16.628 12.6339 17.1161L16.75 21.2322L23.8661 14.1161C24.3543 13.628 25.1457 13.628 25.6339 14.1161C26.122 14.6043 26.122 15.3957 25.6339 15.8839Z" fill="black"/>
</svg>
