<svg width="16" height="16" viewBox="0 0 16 16" fill="none" xmlns="http://www.w3.org/2000/svg">
<path d="M2.12331 7.99997C4.65478 3.36655 11.3452 3.36655 13.8766 7.99997C11.3452 12.6334 4.65478 12.6334 2.12331 7.99997ZM14.8923 7.78458C12.0525 2.10501 3.94746 2.10501 1.10767 7.78458C1.03988 7.92017 1.03988 8.07976 1.10767 8.21535C3.94746 13.895 12.0525 13.895 14.8923 8.21535C14.9601 8.07976 14.9601 7.92017 14.8923 7.78458Z" fill="black"/>
<path d="M8 9.49997C7.17157 9.49997 6.5 8.82839 6.5 7.99997C6.5 7.17154 7.17157 6.49997 8 6.49997C8.82843 6.49997 9.5 7.17154 9.5 7.99997C9.5 8.82839 8.82843 9.49997 8 9.49997ZM8 10.5C9.38071 10.5 10.5 9.38068 10.5 7.99997C10.5 6.61926 9.38071 5.49997 8 5.49997C6.61929 5.49997 5.5 6.61926 5.5 7.99997C5.5 9.38068 6.61929 10.5 8 10.5Z" fill="black"/>
</svg>
