<svg width="28" height="28" viewBox="0 0 28 28" fill="none" xmlns="http://www.w3.org/2000/svg">
<g clip-path="url(#clip0_19_1085)">
<path d="M14 28C21.732 28 28 21.732 28 14C28 6.26801 21.732 0 14 0C6.26801 0 0 6.26801 0 14C0 21.732 6.26801 28 14 28ZM8.94868 10.1838L9.72076 12.5H12.2792L13.0513 10.1838C13.1874 9.77543 13.5696 9.5 14 9.5C14.4304 9.5 14.8126 9.77543 14.9487 10.1838L15.7208 12.5H18.2792L19.0513 10.1838C19.226 9.65983 19.7923 9.37667 20.3162 9.55132C20.8402 9.72596 21.1233 10.2923 20.9487 10.8162L20.3874 12.5H21C21.5523 12.5 22 12.9477 22 13.5C22 14.0523 21.5523 14.5 21 14.5H19.7208L18.423 18.3932C17.9672 19.7607 16.0328 19.7608 15.577 18.3932L14.2792 14.5H13.7208L12.423 18.3932C11.9672 19.7607 10.0328 19.7608 9.57698 18.3932L8.27924 14.5H7.5C6.94772 14.5 6.5 14.0523 6.5 13.5C6.5 12.9477 6.94772 12.5 7.5 12.5H7.61257L7.05132 10.8162C6.87667 10.2923 7.15983 9.72596 7.68377 9.55132C8.20772 9.37667 8.77404 9.65983 8.94868 10.1838ZM11 16.3377L10.3874 14.5H11.6126L11 16.3377ZM17 16.3377L16.3874 14.5H17.6126L17 16.3377Z" fill="black"/>
</g>
<defs>
<clipPath id="clip0_19_1085">
<rect width="28" height="28" fill="white"/>
</clipPath>
</defs>
</svg>
