<svg width="16" height="16" viewBox="0 0 16 16" fill="none" xmlns="http://www.w3.org/2000/svg">
<path d="M10.1587 6.49583L13.3066 6.78463L11.0868 8.75156C10.8252 8.98338 10.7036 9.33498 10.7662 9.6789L11.3588 12.9386L8.53401 11.1545C8.20782 10.9485 7.79221 10.9485 7.46602 11.1545L4.64122 12.9386L5.23389 9.6789C5.29642 9.33498 5.17483 8.98338 4.91321 8.75156L2.6934 6.78464L5.84138 6.49583C6.20045 6.46289 6.51398 6.23919 6.66194 5.91037L8.00002 2.93687L9.3381 5.91038C9.48607 6.23919 9.79959 6.46289 10.1587 6.49583ZM8.45598 1.51326C8.27909 1.12017 7.72095 1.12017 7.54406 1.51326L5.75002 5.50001L1.45103 5.89441C1.01488 5.93443 0.83731 6.47609 1.16512 6.76655L4.25002 9.50001L3.45368 13.8799C3.37581 14.3082 3.84454 14.6245 4.21262 14.392L8.00002 12L11.7874 14.392C12.1555 14.6245 12.6242 14.3082 12.5464 13.8799L11.75 9.50001L14.8349 6.76655C15.1627 6.47609 14.9852 5.93443 14.549 5.89441L10.25 5.50001L8.45598 1.51326Z" fill="black"/>
</svg>
