<svg width="28" height="28" viewBox="0 0 28 28" fill="none" xmlns="http://www.w3.org/2000/svg">
<path d="M17.7839 10.9883L22.7491 11.528L19.3582 14.8137C18.8927 15.2648 18.6747 15.9135 18.7733 16.5541L19.5929 21.8818L15.0918 18.9493C14.4281 18.5169 13.5719 18.5169 12.9082 18.9493L8.40709 21.8818L9.22674 16.5541C9.3253 15.9135 9.10727 15.2648 8.64177 14.8137L5.25091 11.528L10.2161 10.9883C10.9091 10.913 11.5128 10.4823 11.8096 9.85157L14 5.19705L16.1904 9.85157C16.4872 10.4823 17.0909 10.913 17.7839 10.9883ZM14.9048 2.42271C14.5445 1.65711 13.4555 1.65711 13.0952 2.42271L10 8.99997L2.9174 9.76982C2.07539 9.86134 1.72132 10.8928 2.32957 11.4821L7.25 16.25L6.09017 23.7889C5.95872 24.6433 6.90011 25.2507 7.62443 24.7788L14 20.625L20.3756 24.7788C21.0999 25.2507 22.0413 24.6433 21.9098 23.7889L20.75 16.25L25.6704 11.4822C26.2787 10.8928 25.9246 9.86134 25.0826 9.76982L18 8.99997L14.9048 2.42271Z" fill="black"/>
</svg>
