<svg width="12" height="12" viewBox="0 0 12 12" fill="none" xmlns="http://www.w3.org/2000/svg">
<path d="M9.5 2.74668L6.65144 3.37969C6.29141 3.4597 5.9237 3.50006 5.55489 3.50006H4.25C3.2835 3.50006 2.5 4.28356 2.5 5.25006C2.5 6.21656 3.2835 7.00006 4.25 7.00006H5.55489C5.9237 7.00006 6.29141 7.04043 6.65144 7.12043L9.5 7.75345V2.74668ZM4.25 2.50006H5.55489C5.85074 2.50006 6.14571 2.46768 6.43451 2.4035L9.89153 1.63528C10.2038 1.56589 10.5 1.8035 10.5 2.12337V8.37675C10.5 8.69663 10.2038 8.93424 9.89153 8.86485L6.43451 8.09662C6.14571 8.03244 5.85074 8.00006 5.55489 8.00006H4.25C2.73122 8.00006 1.5 6.76885 1.5 5.25006C1.5 3.73128 2.73122 2.50006 4.25 2.50006Z" fill="black"/>
<path d="M6.00001 2.49826C6.27615 2.49826 6.50001 2.72212 6.50001 2.99826V9.75228C6.50001 10.1724 6.1583 10.5001 5.75001 10.5001H5.16927C4.86259 10.5001 4.58681 10.3134 4.47291 10.0286L3.53577 7.68572C3.43322 7.42933 3.55792 7.13835 3.81432 7.03579C4.07071 6.93323 4.36169 7.05794 4.46425 7.31433L5.33853 9.50003H5.50001V2.99826C5.50001 2.72212 5.72387 2.49826 6.00001 2.49826Z" fill="black"/>
</svg>
