<svg width="24" height="24" viewBox="0 0 24 24" fill="none" xmlns="http://www.w3.org/2000/svg">
<path d="M8.71311 8.09093H6C5.44772 8.09093 5 8.53865 5 9.09093V17.0909C5 17.6432 5.44772 18.0909 6 18.0909H18C18.5523 18.0909 19 17.6432 19 17.0909V9.09093C19 8.53865 18.5523 8.09093 18 8.09093H15.2869L13.6674 6.32427C13.478 6.11765 13.2106 6 12.9303 6H11.0697C10.7894 6 10.522 6.11765 10.3326 6.32427L8.71311 8.09093ZM8.85824 4.97283C9.42647 4.35294 10.2288 4 11.0697 4H12.9303C13.7712 4 14.5735 4.35294 15.1418 4.97283L16.1667 6.09093H18C19.6569 6.09093 21 7.43408 21 9.09093V17.0909C21 18.7478 19.6569 20.0909 18 20.0909H6C4.34315 20.0909 3 18.7478 3 17.0909V9.09093C3 7.43408 4.34315 6.09093 6 6.09093H7.83331L8.85824 4.97283Z" fill="black"/>
<path d="M12 14.5C11.1716 14.5 10.5 13.8284 10.5 13C10.5 12.1716 11.1716 11.5 12 11.5C12.8284 11.5 13.5 12.1716 13.5 13C13.5 13.8284 12.8284 14.5 12 14.5ZM12 16.5C13.933 16.5 15.5 14.933 15.5 13C15.5 11.067 13.933 9.50003 12 9.50003C10.067 9.50003 8.5 11.067 8.5 13C8.5 14.933 10.067 16.5 12 16.5Z" fill="black"/>
</svg>
