<svg width="12" height="12" viewBox="0 0 12 12" fill="none" xmlns="http://www.w3.org/2000/svg">
<path d="M6 2.46447C6.97631 1.48816 8.55923 1.48816 9.53554 2.46447C10.5118 3.44078 10.5118 5.02369 9.53554 6L8.56327 6.97227C8.368 7.16754 8.05142 7.16754 7.85616 6.97227C7.6609 6.77701 7.6609 6.46043 7.85616 6.26517L8.82843 5.2929C9.41422 4.70711 9.41422 3.75736 8.82843 3.17157C8.24264 2.58579 7.2929 2.58579 6.70711 3.17157L5.73484 4.14385C5.53958 4.33911 5.22299 4.33911 5.02773 4.14385C4.83247 3.94858 4.83247 3.632 5.02773 3.43674L6 2.46447ZM4.14385 5.02773C3.94859 4.83247 3.632 4.83247 3.43674 5.02773L2.46447 6C1.48816 6.97631 1.48816 8.55923 2.46447 9.53554C3.44078 10.5118 5.02369 10.5118 6 9.53554L6.97228 8.56326C7.16754 8.368 7.16754 8.05142 6.97228 7.85616C6.77701 7.6609 6.46043 7.66089 6.26517 7.85616L5.2929 8.82843C4.70711 9.41421 3.75736 9.41422 3.17158 8.82843C2.58579 8.24264 2.58579 7.29289 3.17158 6.70711L4.14385 5.73484C4.33911 5.53957 4.33911 5.22299 4.14385 5.02773Z" fill="black"/>
<path d="M7.41423 4.58576C7.60949 4.78102 7.60949 5.09761 7.41423 5.29287L5.29291 7.41419C5.09765 7.60945 4.78107 7.60945 4.58581 7.41419C4.39054 7.21893 4.39054 6.90234 4.58581 6.70708L6.70713 4.58576C6.90239 4.3905 7.21897 4.3905 7.41423 4.58576Z" fill="black"/>
</svg>
