<svg width="16" height="16" viewBox="0 0 16 16" fill="none" xmlns="http://www.w3.org/2000/svg">
<path d="M14 8C14 6.587 13.5116 5.28808 12.6943 4.26287L9.9446 7.01258C9.74934 7.20785 9.43275 7.20785 9.23749 7.01258C9.04223 6.81732 9.04223 6.50074 9.23749 6.30548L12.008 3.53496C10.9455 2.58062 9.54058 2 8 2C4.68629 2 2 4.68629 2 8C2 9.54058 2.58062 10.9455 3.53496 12.008L6.40906 9.13391C6.60433 8.93864 6.92091 8.93864 7.11617 9.13391C7.31143 9.32917 7.31143 9.64575 7.11617 9.84101L4.26287 12.6943C5.28808 13.5116 6.587 14 8 14C11.3137 14 14 11.3137 14 8ZM15 8C15 11.866 11.866 15 8 15C4.13401 15 1 11.866 1 8C1 4.13401 4.13401 1 8 1C11.866 1 15 4.13401 15 8Z" fill="black"/>
</svg>
