<svg width="24" height="24" viewBox="0 0 24 24" fill="none" xmlns="http://www.w3.org/2000/svg">
<path d="M20 8V18H4V8H20ZM4 6C2.89543 6 2 6.89543 2 8V18C2 19.1046 2.89543 20 4 20H20C21.1046 20 22 19.1046 22 18V8C22 6.89543 21.1046 6 20 6H4Z" fill="#040505"/>
<path d="M6 6H8C8 5.44772 8.44772 5 9 5H15C15.5523 5 16 5.44772 16 6H18C18 4.34315 16.6569 3 15 3H9C7.34315 3 6 4.34315 6 6Z" fill="#040505"/>
<path d="M6.1 12.8C6.66656 13.5554 7.55573 14 8.5 14H15.5C16.4443 14 17.3334 13.5554 17.9 12.8L21.8 7.60002L20.2 6.40002L16.3 11.6C16.1111 11.8518 15.8148 12 15.5 12H8.5C8.18524 12 7.88885 11.8518 7.7 11.6L3.8 6.40002L2.2 7.60002L6.1 12.8Z" fill="#040505"/>
<path d="M12 11C11.4477 11 11 11.4477 11 12V14C11 14.5523 11.4477 15 12 15C12.5523 15 13 14.5523 13 14V12C13 11.4477 12.5523 11 12 11Z" fill="#040505"/>
</svg>
