<svg width="24" height="24" viewBox="0 0 24 24" fill="none" xmlns="http://www.w3.org/2000/svg">
<path d="M19 5V15H5L5 5H19ZM5 3C3.89543 3 3 3.89543 3 5V15C3 16.1046 3.89543 17 5 17H19C20.1046 17 21 16.1046 21 15V5C21 3.89543 20.1046 3 19 3H5Z" fill="black"/>
<path d="M12 16C11.4477 16 11 16.4477 11 17V19H8C7.44772 19 7 19.4477 7 20C7 20.5523 7.44772 21 8 21H16C16.5523 21 17 20.5523 17 20C17 19.4477 16.5523 19 16 19H13V17C13 16.4477 12.5523 16 12 16Z" fill="black"/>
<path d="M13.8409 7.89474C13.8409 8.94117 13.0167 9.78947 12 9.78947C10.9833 9.78947 10.1591 8.94117 10.1591 7.89474C10.1591 6.8483 10.9833 6 12 6C13.0167 6 13.8409 6.8483 13.8409 7.89474Z" fill="black"/>
<path d="M9.1817 11.6034C9.79436 10.7303 10.7941 10.2105 11.8607 10.2105H12.1393C13.2059 10.2105 14.2056 10.7303 14.8183 11.6034L14.9182 11.7457C15.584 12.6946 14.9052 14 13.7461 14H10.2539C9.09475 14 8.41602 12.6946 9.08182 11.7457L9.1817 11.6034Z" fill="black"/>
</svg>
