<svg width="12" height="12" viewBox="0 0 12 12" fill="none" xmlns="http://www.w3.org/2000/svg">
<path d="M6 10C3.79086 10 2 8.20914 2 6C2 3.79086 3.79086 2 6 2C8.20914 2 10 3.79086 10 6C10 8.20914 8.20914 10 6 10ZM6 11C8.76142 11 11 8.76142 11 6C11 3.23858 8.76142 1 6 1C3.23858 1 1 3.23858 1 6C1 8.76142 3.23858 11 6 11Z" fill="black"/>
<path d="M6 3.25C6.27614 3.25 6.5 3.47386 6.5 3.75V6.25C6.5 6.52614 6.27614 6.75 6 6.75C5.72386 6.75 5.5 6.52614 5.5 6.25V3.75C5.5 3.47386 5.72386 3.25 6 3.25Z" fill="black"/>
<path d="M6.75 8C6.75 8.41421 6.41421 8.75 6 8.75C5.58579 8.75 5.25 8.41421 5.25 8C5.25 7.58579 5.58579 7.25 6 7.25C6.41421 7.25 6.75 7.58579 6.75 8Z" fill="black"/>
</svg>
