<svg width="16" height="16" viewBox="0 0 16 16" fill="none" xmlns="http://www.w3.org/2000/svg">
<path d="M14 4H2V6C3.10457 6 4 6.89543 4 8C4 9.10457 3.10457 10 2 10V12H14V10C12.8954 10 12 9.10457 12 8C12 6.89543 12.8954 6 14 6V4ZM2 3H14C14.5523 3 15 3.44772 15 4V6.1865C15 6.68708 14.5006 7 14 7C13.4477 7 13 7.44772 13 8C13 8.55228 13.4477 9 14 9C14.5006 9 15 9.31292 15 9.8135V12C15 12.5523 14.5523 13 14 13H2C1.44772 13 1 12.5523 1 12V9.8135C1 9.31292 1.49942 9 2 9C2.55228 9 3 8.55228 3 8C3 7.44772 2.55228 7 2 7C1.49942 7 1 6.68708 1 6.1865V4C1 3.44772 1.44772 3 2 3Z" fill="black"/>
<path d="M10 3C10.2761 3 10.5 3.22386 10.5 3.5V12.5C10.5 12.7761 10.2761 13 10 13C9.72386 13 9.5 12.7761 9.5 12.5V3.5C9.5 3.22386 9.72386 3 10 3Z" fill="black"/>
</svg>
