<svg width="28" height="28" viewBox="0 0 28 28" fill="none" xmlns="http://www.w3.org/2000/svg">
<g clip-path="url(#clip0_19_1104)">
<path d="M14 28C21.732 28 28 21.732 28 14C28 6.26801 21.732 0 14 0C6.26801 0 0 6.26801 0 14C0 21.732 6.26801 28 14 28ZM19.0421 18.3556L20.2357 19.6629C20.5287 19.9838 20.301 20.5 19.8664 20.5H14.0037H14C10.134 20.5 7 17.366 7 13.5C7 9.63401 10.134 6.5 14 6.5C17.866 6.5 21 9.63401 21 13.5C21 15.3856 20.2545 17.097 19.0421 18.3556ZM12 13.75C12 14.3023 11.5523 14.75 11 14.75C10.4477 14.75 10 14.3023 10 13.75C10 13.1977 10.4477 12.75 11 12.75C11.5523 12.75 12 13.1977 12 13.75ZM14 14.75C14.5523 14.75 15 14.3023 15 13.75C15 13.1977 14.5523 12.75 14 12.75C13.4477 12.75 13 13.1977 13 13.75C13 14.3023 13.4477 14.75 14 14.75ZM18 13.75C18 14.3023 17.5523 14.75 17 14.75C16.4477 14.75 16 14.3023 16 13.75C16 13.1977 16.4477 12.75 17 12.75C17.5523 12.75 18 13.1977 18 13.75Z" fill="black"/>
</g>
<defs>
<clipPath id="clip0_19_1104">
<rect width="28" height="28" fill="white"/>
</clipPath>
</defs>
</svg>
