<svg width="28" height="28" viewBox="0 0 28 28" fill="none" xmlns="http://www.w3.org/2000/svg">
<g clip-path="url(#clip0_9_511)">
<path d="M14 28C21.732 28 28 21.732 28 14C28 6.26801 21.732 0 14 0C6.26801 0 0 6.26801 0 14C0 21.732 6.26801 28 14 28ZM20.2071 12.2071L13.7071 18.7071C13.3166 19.0976 12.6834 19.0976 12.2929 18.7071L8.29289 14.7071C7.90237 14.3166 7.90237 13.6834 8.29289 13.2929C8.68342 12.9024 9.31658 12.9024 9.70711 13.2929L13 16.5858L18.7929 10.7929C19.1834 10.4024 19.8166 10.4024 20.2071 10.7929C20.5976 11.1834 20.5976 11.8166 20.2071 12.2071Z" fill="black"/>
</g>
<defs>
<clipPath id="clip0_9_511">
<rect width="28" height="28" fill="white"/>
</clipPath>
</defs>
</svg>
