<svg width="12" height="12" viewBox="0 0 12 12" fill="none" xmlns="http://www.w3.org/2000/svg">
<path d="M7.32364 1.82633C7.69718 1.45278 8.31658 1.46655 8.70711 1.85707L10.1213 3.27128C10.5118 3.66181 10.5256 4.28121 10.1521 4.65475L4.85389 9.95293C4.70754 10.0993 4.51552 10.1921 4.30665 10.2174L2.05415 10.49C1.90223 10.5083 1.74732 10.4537 1.63604 10.3424C1.52476 10.2311 1.47008 10.0762 1.48847 9.92424L1.76106 7.67174C1.78634 7.46287 1.87912 7.27085 2.02546 7.1245L7.32364 1.82633ZM9.44496 3.94765L8.03074 2.53343L2.73257 7.83161L2.53786 9.44053L4.14678 9.24582L9.44496 3.94765Z" fill="black"/>
</svg>
