<svg width="16" height="16" viewBox="0 0 16 16" fill="none" xmlns="http://www.w3.org/2000/svg">
<path d="M8.35354 3.40383C9.52512 2.23225 11.4246 2.23225 12.5962 3.40383C13.7677 4.5754 13.7677 6.47489 12.5962 7.64647L11.182 9.06068C10.9867 9.25594 10.6701 9.25594 10.4749 9.06068C10.2796 8.86542 10.2796 8.54884 10.4749 8.35357L11.8891 6.93936C12.6701 6.15831 12.6701 4.89198 11.8891 4.11093C11.108 3.32988 9.8417 3.32988 9.06065 4.11093L7.64644 5.52515C7.45117 5.72041 7.13459 5.72041 6.93933 5.52515C6.74407 5.32988 6.74407 5.0133 6.93933 4.81804L8.35354 3.40383ZM5.52512 6.93936C5.72038 7.13462 5.72038 7.4512 5.52512 7.64647L4.1109 9.06068C3.32985 9.84173 3.32985 11.108 4.1109 11.8891C4.89195 12.6701 6.15828 12.6701 6.93933 11.8891L8.35354 10.4749C8.54881 10.2796 8.86539 10.2796 9.06065 10.4749C9.25591 10.6701 9.25591 10.9867 9.06065 11.182L7.64644 12.5962C6.47486 13.7678 4.57537 13.7678 3.4038 12.5962C2.23222 11.4246 2.23222 9.52515 3.4038 8.35357L4.81801 6.93936C5.01327 6.7441 5.32985 6.7441 5.52512 6.93936Z" fill="black"/>
<path d="M10.1213 5.8787C10.3166 6.07397 10.3166 6.39055 10.1213 6.58581L6.58579 10.1213C6.39053 10.3166 6.07395 10.3166 5.87868 10.1213C5.68342 9.92608 5.68342 9.6095 5.87868 9.41424L9.41422 5.8787C9.60948 5.68344 9.92606 5.68344 10.1213 5.8787Z" fill="black"/>
</svg>
