<svg width="24" height="24" viewBox="0 0 24 24" fill="none" xmlns="http://www.w3.org/2000/svg">
<path d="M3.36421 16H5.11775C5.04025 15.5114 5 15.0104 5 14.5C5 9.25329 9.25329 5 14.5 5C14.5828 5 14.6653 5.00106 14.7475 5.00316C13.4828 3.1879 11.3801 2 9 2C5.13401 2 2 5.13401 2 9C2 10.6656 2.58169 12.1952 3.55301 13.397L2.65711 14.2929C2.02714 14.9229 2.47331 16 3.36421 16ZM20.3361 19.2111C21.3768 17.9235 22 16.2845 22 14.5C22 10.3579 18.6421 7 14.5 7C10.3579 7 7 10.3579 7 14.5C7 18.6421 10.3579 22 14.5 22H20.7108C21.6017 22 22.0479 20.9229 21.4179 20.2929L20.3361 19.2111Z" fill="black"/>
</svg>
