<svg width="16" height="16" viewBox="0 0 16 16" fill="none" xmlns="http://www.w3.org/2000/svg">
<path d="M11 4.5V11.5H2V4.5H11ZM2 3.5C1.44772 3.5 1 3.94772 1 4.5V11.5C1 12.0523 1.44771 12.5 2 12.5H11C11.5523 12.5 12 12.0523 12 11.5V4.5C12 3.94772 11.5523 3.5 11 3.5H2Z" fill="black"/>
<path d="M12 6.53683L14 5.88058V10.1194L12 9.46316V6.53683ZM11 10.1875L14.3441 11.2848C14.6674 11.3909 15 11.15 15 10.8097V5.19029C15 4.84999 14.6674 4.60911 14.3441 4.71521L11 5.81249V10.1875Z" fill="black"/>
</svg>
