<svg width="36" height="36" viewBox="0 0 36 36" fill="none" xmlns="http://www.w3.org/2000/svg">
<path d="M19.8097 22.0433C19.4227 21.1091 18.5112 20.5 17.5 20.5H8C6.61929 20.5 5.5 19.3807 5.5 18C5.5 16.6193 6.61929 15.5 8 15.5H17.5C18.5112 15.5 19.4227 14.8909 19.8097 13.9567C20.1967 13.0225 19.9828 11.9472 19.2678 11.2322L18.0178 9.98223C17.1992 9.16362 17.1992 7.83638 18.0178 7.01777C18.8364 6.19916 20.1636 6.19915 20.9822 7.01777L29.4896 15.5251C30.8564 16.892 30.8564 19.108 29.4896 20.4749L20.9822 28.9822C20.1636 29.8009 18.8364 29.8009 18.0178 28.9822C17.1992 28.1636 17.1992 26.8364 18.0178 26.0178L19.2678 24.7678C19.9828 24.0528 20.1967 22.9775 19.8097 22.0433ZM8 13C5.23858 13 3 15.2386 3 18C3 20.7614 5.23858 23 8 23H17.5L16.25 24.25C15.8752 24.6248 15.5786 25.0482 15.3604 25.5C14.5333 27.2117 14.8299 29.3299 16.25 30.75C18.0449 32.5449 20.9551 32.5449 22.75 30.75L31.2574 22.2426C33.6005 19.8995 33.6005 16.1005 31.2574 13.7574L22.75 5.25C20.9551 3.45508 18.0449 3.45508 16.25 5.25C14.8299 6.67012 14.5333 8.78834 15.3604 10.5C15.5786 10.9518 15.8752 11.3752 16.25 11.75L17.5 13H8Z" fill="black"/>
</svg>
