<svg width="36" height="36" viewBox="0 0 36 36" fill="none" xmlns="http://www.w3.org/2000/svg">
<path d="M18 33C26.2843 33 33 26.2843 33 18C33 9.71573 26.2843 3 18 3C9.71573 3 3 9.71573 3 18C3 26.2843 9.71573 33 18 33ZM13.8839 16.8839C13.3957 17.372 12.6043 17.372 12.1161 16.8839C11.628 16.3957 11.628 15.6043 12.1161 15.1161L15.7019 11.5303C16.9711 10.2611 19.0289 10.2611 20.2981 11.5303L23.8839 15.1161C24.372 15.6043 24.372 16.3957 23.8839 16.8839C23.3957 17.372 22.6043 17.372 22.1161 16.8839L19.25 14.0178V25C19.25 25.6904 18.6904 26.25 18 26.25C17.3096 26.25 16.75 25.6904 16.75 25V14.0178L13.8839 16.8839Z" fill="black"/>
</svg>
