<svg width="16" height="16" viewBox="0 0 16 16" fill="none" xmlns="http://www.w3.org/2000/svg">
<path d="M4 5C4 2.79086 5.79086 1 8 1C10.2091 1 12 2.79086 12 5V5.5H11V5C11 3.34315 9.65685 2 8 2C6.34315 2 5 3.34315 5 5V5.5H4V5Z" fill="black"/>
<path d="M3.5 5H12.5C13.0523 5 13.5 5.44772 13.5 6V14C13.5 14.5523 13.0523 15 12.5 15H3.5C2.94771 15 2.5 14.5523 2.5 14V6C2.5 5.44772 2.94772 5 3.5 5ZM8.49994 9C8.49994 8.72386 8.27608 8.5 7.99994 8.5C7.7238 8.5 7.49994 8.72386 7.49994 9V11C7.49994 11.2761 7.7238 11.5 7.99994 11.5C8.27608 11.5 8.49994 11.2761 8.49994 11V9Z" fill="black"/>
</svg>
