<svg width="24" height="24" viewBox="0 0 24 24" fill="none" xmlns="http://www.w3.org/2000/svg">
<path d="M4 6V18H20V6H4ZM2 6C2 4.89543 2.89543 4 4 4H20C21.1046 4 22 4.89543 22 6V18C22 19.1046 21.1046 20 20 20H4C2.89543 20 2 19.1046 2 18V6ZM11.0714 9.10052L14.6441 11.3511C14.7524 11.417 14.8422 11.5117 14.9047 11.6256C14.9671 11.7395 15 11.8686 15 12C15 12.1314 14.9671 12.2605 14.9047 12.3744C14.8422 12.4883 14.7524 12.583 14.6441 12.6489L11.0714 14.8995C10.9626 14.9655 10.8392 15.0001 10.7136 15C10.588 14.9999 10.4646 14.9649 10.3559 14.8988C10.2472 14.8326 10.1571 14.7374 10.0946 14.623C10.0321 14.5085 9.99951 14.3788 10 14.2468V9.74568C10.0008 9.61438 10.0343 9.48558 10.0973 9.37217C10.1603 9.25875 10.2505 9.16469 10.359 9.09938C10.4675 9.03407 10.5903 8.9998 10.7154 9C10.8404 9.0002 10.9632 9.03486 11.0714 9.10052Z" fill="#333333"/>
</svg>
