<svg width="24" height="24" viewBox="0 0 24 24" fill="none" xmlns="http://www.w3.org/2000/svg">
<path d="M5.21913 11.3753L9.21913 6.37534C9.56414 5.94408 10.1934 5.87416 10.6247 6.21917C11.056 6.56418 11.1259 7.19347 10.7809 7.62473L7.28062 12L10.7809 16.3753C11.1259 16.8066 11.056 17.4359 10.6247 17.7809C10.1934 18.1259 9.56414 18.056 9.21913 17.6247L5.21913 12.6247C4.92696 12.2595 4.92696 11.7406 5.21913 11.3753Z" fill="black"/>
<path d="M19 12C19 12.5523 18.5523 13 18 13H8C7.44771 13 7 12.5523 7 12C7 11.4477 7.44771 11 8 11H18C18.5523 11 19 11.4477 19 12Z" fill="black"/>
</svg>
