<svg width="24" height="24" viewBox="0 0 24 24" fill="none" xmlns="http://www.w3.org/2000/svg">
<path d="M12 10C13.1046 10 14 10.8954 14 12C14 13.1046 13.1046 14 12 14C10.8954 14 10 13.1046 10 12C10 10.8954 10.8954 10 12 10ZM16 12C16 9.79086 14.2091 8 12 8C9.79086 8 8 9.79086 8 12C8 14.2091 9.79086 16 12 16C14.2091 16 16 14.2091 16 12Z" fill="black"/>
<path d="M8.99999 3.5C8.99999 2.67157 9.67157 2 10.5 2H13.5C14.3284 2 15 2.67157 15 3.5V4.5818C15.0415 4.59862 15.0829 4.61577 15.1241 4.63326L15.8891 3.86827C16.4749 3.28248 17.4246 3.28248 18.0104 3.86827L20.1317 5.98959C20.7175 6.57538 20.7175 7.52513 20.1317 8.11091L20.13 8.11M20.1317 8.11091L19.3667 8.8759C19.3842 8.91709 19.4014 8.95846 19.4182 9H20.5C21.3284 9 22 9.67157 22 10.5V13.5C22 14.3284 21.3284 15 20.5 15H19.4182C19.4014 15.0415 19.3842 15.0829 19.3667 15.1241L20.1317 15.8891C20.7175 16.4749 20.7175 17.4246 20.1317 18.0104L18.0104 20.1317C17.4246 20.7175 16.4749 20.7175 15.8891 20.1317L15.1241 19.3667C15.0829 19.3842 15.0415 19.4014 15 19.4182V20.5C15 21.3284 14.3284 22 13.5 22H10.5C9.67157 22 8.99999 21.3284 8.99999 20.5V19.4182C8.95845 19.4014 8.91708 19.3842 8.87589 19.3667L8.11091 20.1317C7.52512 20.7175 6.57537 20.7175 5.98959 20.1317L3.86827 18.0104C3.28248 17.4246 3.28248 16.4749 3.86827 15.8891L4.63325 15.1241C4.61576 15.0829 4.59861 15.0415 4.5818 15H3.5C2.67157 15 2 14.3284 2 13.5V10.5C2 9.67157 2.67157 9 3.5 9H4.5818C4.59861 8.95846 4.61576 8.91709 4.63325 8.8759L3.86826 8.11091C3.28248 7.52512 3.28248 6.57538 3.86826 5.98959L5.98958 3.86827C6.57537 3.28248 7.52512 3.28248 8.1109 3.86827L8.87589 4.63326C8.91708 4.61577 8.95845 4.59862 8.99999 4.5818V3.5M11 4V6.03561L10.2852 6.24833C9.8868 6.36692 9.50556 6.52588 9.14623 6.72059L8.49026 7.07605L7.05024 5.63604L5.63603 7.05025L7.07604 8.49026L6.72059 9.14623C6.52587 9.50557 6.36691 9.8868 6.24833 10.2852L6.03561 11H4V13H6.03561L6.24833 13.7148C6.36691 14.1132 6.52587 14.4944 6.72058 14.8538L7.07604 15.5097L5.63603 16.9497L7.05025 18.364L8.49026 16.924L9.14623 17.2794C9.50556 17.4741 9.8868 17.6331 10.2852 17.7517L11 17.9644V20H13V17.9644L13.7147 17.7517C14.1132 17.6331 14.4944 17.4741 14.8538 17.2794L15.5097 16.924L16.9497 18.364L18.364 16.9497L16.9239 15.5097L17.2794 14.8538C17.4741 14.4944 17.6331 14.1132 17.7517 13.7148L17.9644 13H20V11H17.9644L17.7517 10.2852C17.6331 9.8868 17.4741 9.50557 17.2794 9.14623L16.9239 8.49026L18.364 7.05025L16.9497 5.63604L15.5097 7.07605L14.8538 6.72059C14.4944 6.52588 14.1132 6.36692 13.7147 6.24833L13 6.03561V4H11Z" fill="black"/>
</svg>
