<svg width="16" height="16" viewBox="0 0 16 16" fill="none" xmlns="http://www.w3.org/2000/svg">
<path d="M5.5 8.5C5.5 8.22386 5.72386 8 6 8H10C10.2761 8 10.5 8.22386 10.5 8.5C10.5 8.77614 10.2761 9 10 9H6C5.72386 9 5.5 8.77614 5.5 8.5Z" fill="black"/>
<path d="M6 10.5C5.72386 10.5 5.5 10.7239 5.5 11C5.5 11.2761 5.72386 11.5 6 11.5H10C10.2761 11.5 10.5 11.2761 10.5 11C10.5 10.7239 10.2761 10.5 10 10.5H6Z" fill="black"/>
<path d="M3 2V14C3 14.5523 3.44772 15 4 15H12C12.5523 15 13 14.5523 13 14L13 5.44907C13 5.16343 12.8779 4.89142 12.6644 4.70166L8.78416 1.25259C8.60111 1.08988 8.36472 1 8.1198 1H4C3.44772 1 3 1.44772 3 2ZM4 14L4 2L8.1198 2L7.5 2V4C7.5 4.82843 8.17157 5.5 9 5.5H12L12 14H4ZM10.9323 4.5H9C8.72386 4.5 8.5 4.27614 8.5 4V2.33795L10.9323 4.5Z" fill="black"/>
</svg>
