<svg width="24" height="24" viewBox="0 0 24 24" fill="none" xmlns="http://www.w3.org/2000/svg">
<path d="M12 4.92895C13.9526 2.97632 17.1184 2.97632 19.0711 4.92895C21.0237 6.88157 21.0237 10.0474 19.0711 12L16.9497 14.1213C16.5592 14.5118 15.926 14.5118 15.5355 14.1213C15.145 13.7308 15.145 13.0976 15.5355 12.7071L17.6568 10.5858C18.8284 9.41423 18.8284 7.51473 17.6568 6.34316C16.4853 5.17159 14.5858 5.17159 13.4142 6.34316L11.2929 8.46448C10.9024 8.855 10.2692 8.855 9.87866 8.46448C9.48813 8.07396 9.48813 7.44079 9.87866 7.05027L12 4.92895ZM8.46444 9.87869C8.85497 10.2692 8.85497 10.9024 8.46444 11.2929L6.34312 13.4142C5.17155 14.5858 5.17155 16.4853 6.34312 17.6569C7.5147 18.8284 9.41419 18.8284 10.5858 17.6569L12.7071 15.5355C13.0976 15.145 13.7308 15.145 14.1213 15.5355C14.5118 15.9261 14.5118 16.5592 14.1213 16.9498L12 19.0711C10.0474 21.0237 6.88153 21.0237 4.92891 19.0711C2.97629 17.1185 2.97629 13.9526 4.92891 12L7.05023 9.87869C7.44076 9.48817 8.07392 9.48817 8.46444 9.87869Z" fill="black"/>
<path d="M14.8284 9.17158C15.2189 9.5621 15.2189 10.1953 14.8284 10.5858L10.5858 14.8284C10.1952 15.2189 9.56207 15.2189 9.17155 14.8284C8.78103 14.4379 8.78103 13.8047 9.17155 13.4142L13.4142 9.17158C13.8047 8.78105 14.4379 8.78105 14.8284 9.17158Z" fill="black"/>
</svg>
