<svg width="16" height="16" viewBox="0 0 16 16" fill="none" xmlns="http://www.w3.org/2000/svg">
<path d="M8 14C4.68629 14 2 11.3137 2 8C2 4.68629 4.68629 2 8 2C11.3137 2 14 4.68629 14 8C14 11.3137 11.3137 14 8 14ZM8 15C11.866 15 15 11.866 15 8C15 4.13401 11.866 1 8 1C4.13401 1 1 4.13401 1 8C1 11.866 4.13401 15 8 15Z" fill="black"/>
<path d="M8 4.50003C7.72386 4.50003 7.5 4.72389 7.5 5.00003V8.20714L9.64645 10.3536C9.84171 10.5488 10.1583 10.5488 10.3536 10.3536C10.5488 10.1583 10.5488 9.84174 10.3536 9.64648L8.5 7.79292V5.00003C8.5 4.72389 8.27614 4.50003 8 4.50003Z" fill="black"/>
</svg>
