<svg width="24" height="24" viewBox="0 0 24 24" fill="none" xmlns="http://www.w3.org/2000/svg">
<path d="M12 22C17.5228 22 22 17.5228 22 12C22 6.47715 17.5228 2 12 2C6.47715 2 2 6.47715 2 12C2 17.5228 6.47715 22 12 22ZM14 9.5L16.9856 9.8732C17.3984 9.9248 17.5713 10.4287 17.2771 10.7229L15 13L15.5603 16.3616C15.6322 16.7934 15.1539 17.1026 14.7897 16.8598L12 15L9.21028 16.8598C8.84608 17.1026 8.36777 16.7934 8.43974 16.3616L9 13L6.72289 10.7229C6.42868 10.4287 6.60156 9.9248 7.01443 9.8732L10 9.5L11.5528 6.39443C11.737 6.0259 12.263 6.0259 12.4472 6.39443L14 9.5Z" fill="black"/>
</svg>
