<svg width="16" height="16" viewBox="0 0 16 16" fill="none" xmlns="http://www.w3.org/2000/svg">
<path d="M14 8C14 4.68629 11.3137 2 8 2C4.68629 2 2 4.68629 2 8C2 11.3137 4.68629 14 8 14C11.3137 14 14 11.3137 14 8ZM15 8C15 11.866 11.866 15 8 15C4.13401 15 1 11.866 1 8C1 4.13401 4.13401 1 8 1C11.866 1 15 4.13401 15 8ZM7 10.5981L10.75 8.43301C11.0833 8.24056 11.0833 7.75944 10.75 7.56699L7 5.40192C6.66667 5.20947 6.25 5.45004 6.25 5.83494V10.1651C6.25 10.55 6.66667 10.7905 7 10.5981Z" fill="black"/>
</svg>
