<svg width="28" height="28" viewBox="0 0 28 28" fill="none" xmlns="http://www.w3.org/2000/svg">
<path d="M14 24C13.7239 24 13.5 23.7761 13.5 23.5C13.5 23.2239 13.7239 23 14 23C14.2761 23 14.5 23.2239 14.5 23.5C14.5 23.7761 14.2761 24 14 24ZM14 26C15.3807 26 16.5 24.8807 16.5 23.5C16.5 22.1193 15.3807 21 14 21C12.6193 21 11.5 22.1193 11.5 23.5C11.5 24.8807 12.6193 26 14 26Z" fill="black"/>
<path d="M6.23077 11.2692V12.139C3.88046 12.2201 2 14.1509 2 16.521V16.5909C2 19.0511 3.99437 21.0455 6.45455 21.0455H7.23077C7.78305 21.0455 8.23077 20.5977 8.23077 20.0455V11.2692C8.23077 8.08298 10.8137 5.5 14 5.5C17.1863 5.5 19.7692 8.08297 19.7692 11.2692V21.5C19.7692 22.0523 19.3215 22.5 18.7692 22.5H16.5385C15.9862 22.5 15.5385 22.9477 15.5385 23.5C15.5385 24.0523 15.9862 24.5 16.5385 24.5H18.7692C20.4261 24.5 21.7692 23.1569 21.7692 21.5V21.0399C24.1254 20.9234 26 18.976 26 16.5909V16.521C26 14.1509 24.1195 12.2201 21.7692 12.139V11.2692C21.7692 6.9784 18.2908 3.5 14 3.5C9.70917 3.5 6.23077 6.97841 6.23077 11.2692ZM6.23077 14.1412V19.0354C4.98004 18.9224 4 17.8711 4 16.5909V16.521C4 15.2557 4.98548 14.2205 6.23077 14.1412ZM21.7692 19.0354V14.1412C23.0145 14.2205 24 15.2557 24 16.521V16.5909C24 17.8711 23.02 18.9224 21.7692 19.0354Z" fill="black"/>
</svg>
