<svg width="36" height="36" viewBox="0 0 36 36" fill="none" xmlns="http://www.w3.org/2000/svg">
<path d="M30.5 14.7624L18 7.4013L5.5 14.7624V15.5H30.5V14.7624ZM3.98512 12.7532L16.9851 5.09767C17.6114 4.72884 18.3886 4.72884 19.0149 5.09767L32.0149 12.7532C32.6253 13.1127 33 13.7682 33 14.4766V16C33 17.1046 32.1046 18 31 18H5C3.89543 18 3 17.1046 3 16V14.4766C3 13.7682 3.37472 13.1127 3.98512 12.7532Z" fill="black"/>
<path d="M6.75 29V16H9.25V29H6.75Z" fill="black"/>
<path d="M3.75 29.75C3.75 29.0596 4.30964 28.5 5 28.5H31C31.6904 28.5 32.25 29.0596 32.25 29.75C32.25 30.4404 31.6904 31 31 31H5C4.30964 31 3.75 30.4404 3.75 29.75Z" fill="black"/>
<path d="M26.75 29V16H29.25V29H26.75Z" fill="black"/>
<path d="M19.5 12C19.5 12.8284 18.8284 13.5 18 13.5C17.1716 13.5 16.5 12.8284 16.5 12C16.5 11.1716 17.1716 10.5 18 10.5C18.8284 10.5 19.5 11.1716 19.5 12Z" fill="black"/>
<path d="M24 16.4348V28.9565H21.5V21.5C21.5 19.567 19.933 18 18 18C16.067 18 14.5 19.567 14.5 21.5V28.9565H12V16.4348H24Z" fill="black"/>
</svg>
