<svg width="24" height="24" viewBox="0 0 24 24" fill="none" xmlns="http://www.w3.org/2000/svg">
<path d="M7 9.5C7 6.73858 9.23858 4.5 12 4.5C14.7614 4.5 17 6.73858 17 9.5C17 11.2189 16.1352 12.7368 14.8032 13.6412L16.4109 16.0089L14.8032 13.6412C13.7858 14.3321 13 15.5401 13 17.0065V17.5H11V17.0065C11 15.5402 10.2142 14.3321 9.19678 13.6412C7.86477 12.7368 7 11.2189 7 9.5ZM12 1.5C7.58172 1.5 4 5.08172 4 9.5C4 12.2547 5.39227 14.6842 7.51152 16.1232C7.80684 16.3237 8 16.6496 8 17.0065V18.5C8 19.2532 8.41634 19.9091 9.03144 20.2502C9.01092 20.3301 9 20.4138 9 20.5V21.5C9 22.0523 9.44772 22.5 10 22.5H14C14.5523 22.5 15 22.0523 15 21.5V20.5C15 20.4138 14.9891 20.3301 14.9686 20.2502C15.5837 19.9091 16 19.2532 16 18.5V17.0065C16 16.6496 16.1932 16.3237 16.4885 16.1232C18.6077 14.6842 20 12.2547 20 9.5C20 5.08172 16.4183 1.5 12 1.5Z" fill="black"/>
</svg>
