<svg width="36" height="36" viewBox="0 0 36 36" fill="none" xmlns="http://www.w3.org/2000/svg">
<path d="M12.4775 11.5L15.5838 8.6326C15.6762 8.54734 15.7973 8.5 15.923 8.5H20.077C20.2027 8.5 20.3238 8.54734 20.4162 8.6326L23.5225 11.5H30C30.2761 11.5 30.5 11.7239 30.5 12V26C30.5 26.2761 30.2761 26.5 30 26.5H6C5.72386 26.5 5.5 26.2761 5.5 26V12C5.5 11.7239 5.72386 11.5 6 11.5H12.4775ZM13.8881 6.79559L11.5 9H6C4.34315 9 3 10.3431 3 12V26C3 27.6569 4.34315 29 6 29H30C31.6569 29 33 27.6569 33 26V12C33 10.3431 31.6569 9 30 9H24.5L22.1119 6.79559C21.5577 6.28405 20.8312 6 20.077 6H15.923C15.1688 6 14.4423 6.28405 13.8881 6.79559Z" fill="black"/>
<path d="M18 21C16.6193 21 15.5 19.8807 15.5 18.5C15.5 17.1193 16.6193 16 18 16C19.3807 16 20.5 17.1193 20.5 18.5C20.5 19.8807 19.3807 21 18 21ZM18 23.5C20.7614 23.5 23 21.2614 23 18.5C23 15.7386 20.7614 13.5 18 13.5C15.2386 13.5 13 15.7386 13 18.5C13 21.2614 15.2386 23.5 18 23.5Z" fill="black"/>
</svg>
